<?xml version="1.0" encoding="UTF-8" standalone="no"?>
<!-- Created with Inkscape (http://www.inkscape.org/) -->

<svg
   width="1920"
   height="1080"
   viewBox="0 0 508 285.75"
   version="1.1"
   id="svg5"
   xmlns="http://www.w3.org/2000/svg"
   xmlns:svg="http://www.w3.org/2000/svg">
  <defs
     id="defs2" />
  <g
     id="layer1">
    <rect
       style="fill:#296fbb;fill-opacity:1;stroke-width:9.69382;paint-order:markers stroke fill"
       id="rect846"
       width="508"
       height="285.75"
       x="0"
       y="0" />
    <path
       style="fill:none;stroke:#41a89a;stroke-width:1.85208333;stroke-linecap:butt;stroke-linejoin:miter;stroke-opacity:1;stroke-miterlimit:4;stroke-dasharray:none"
       d="M 64.639173,46.608248 C 95.257732,33.850515 173.84536,36.402062 150.03093,60.896907 126.21649,85.391751 82.329895,114.30928 65.659793,94.917523 48.989691,75.525772 34.020615,59.365981 64.639173,46.608248 Z"
       id="path988" />
    <path
       style="fill:none;stroke:#41a89a;stroke-width:1.85208;stroke-linecap:butt;stroke-linejoin:miter;stroke-miterlimit:4;stroke-dasharray:none;stroke-opacity:1"
       d="m 387.49557,279.56998 c 30.61856,-12.75773 109.20619,-10.20619 85.39176,14.28866 -23.81444,24.49484 -67.70103,53.41237 -84.37114,34.02062 -16.6701,-19.39176 -31.63917,-35.55155 -1.02062,-48.30928 z"
       id="path988-98" />
    <path
       style="fill:none;stroke:#41a89a;stroke-width:1.85208;stroke-linecap:butt;stroke-linejoin:miter;stroke-miterlimit:4;stroke-dasharray:none;stroke-opacity:1"
       d="M 52.732688,75.106061 C 83.351247,62.348328 137.78424,113.20915 117.03166,137.704 94.947977,163.76999 45.248155,177.84833 28.57805,158.45658 11.907948,139.06482 22.11413,87.863794 52.732688,75.106061 Z"
       id="path988-9" />
    <path
       style="fill:none;stroke:#41a89a;stroke-width:1.85208;stroke-linecap:butt;stroke-linejoin:miter;stroke-miterlimit:4;stroke-dasharray:none;stroke-opacity:1"
       d="m 473.90008,-13.549837 c 30.61855,-12.757733 85.05155,38.10309 64.29897,62.59794 -22.08369,26.06599 -71.78351,40.14433 -88.45361,20.75258 -16.6701,-19.39176 -6.46392,-70.5927896 24.15464,-83.35052 z"
       id="path988-9-4" />
    <path
       style="fill:none;stroke:#41a89a;stroke-width:1.85208;stroke-linecap:butt;stroke-linejoin:miter;stroke-miterlimit:4;stroke-dasharray:none;stroke-opacity:1"
       d="m 333.63585,171.73712 c -1.3936,-33.14081 65.14153,-66.64978 80.95812,-38.7123 16.8311,29.72943 12.87153,81.23277 -11.08552,90.17662 -23.95705,8.94384 -68.479,-18.3235 -69.8726,-51.46432 z"
       id="path988-9-47" />
    <path
       style="fill:none;stroke:#41a89a;stroke-width:1.85208;stroke-linecap:butt;stroke-linejoin:miter;stroke-miterlimit:4;stroke-dasharray:none;stroke-opacity:1"
       d="m 356.67728,268.54648 c 6.48852,-32.5293 52.43868,-96.33454 59.48707,-62.90633 7.04838,33.4282 6.57236,85.98322 -18.82073,89.00377 -25.39308,3.02054 -47.15486,6.43184 -40.66634,-26.09744 z"
       id="path988-2" />
    <path
       style="fill:none;stroke:#41a89a;stroke-width:1.85208;stroke-linecap:butt;stroke-linejoin:miter;stroke-miterlimit:4;stroke-dasharray:none;stroke-opacity:1"
       d="m 216.14157,-60.188188 c 20.63812,25.967752 39.65594,102.262238 9.58638,86.046608 -30.06955,-16.2156248 -69.87776,-50.531256 -55.7786,-71.865416 14.09916,-21.334146 25.55411,-40.14893 46.19222,-14.181192 z"
       id="path988-2-3" />
    <path
       style="fill:none;stroke:#41a89a;stroke-width:1.85208;stroke-linecap:butt;stroke-linejoin:miter;stroke-miterlimit:4;stroke-dasharray:none;stroke-opacity:1"
       d="m 514.0859,-45.663919 c 20.63812,25.967752 39.65594,102.262238 9.58638,86.046608 -30.06955,-16.21562 -69.87776,-50.531256 -55.7786,-71.865416 14.09916,-21.334146 25.55411,-40.14893 46.19222,-14.181192 z"
       id="path988-2-3-1" />
    <path
       style="fill:none;stroke:#41a89a;stroke-width:1.85208;stroke-linecap:butt;stroke-linejoin:miter;stroke-miterlimit:4;stroke-dasharray:none;stroke-opacity:1"
       d="m 248.18035,160.37441 c -28.07469,-30.91318 -68.41034,-55.59924 -34.43001,-79.438613 27.96703,-19.620656 81.63511,27.785243 74.42191,52.318943 -7.21321,24.53369 -11.9172,58.03285 -39.9919,27.11967 z"
       id="path988-2-0" />
    <path
       style="fill:none;stroke:#41a89a;stroke-width:1.85208;stroke-linecap:butt;stroke-linejoin:miter;stroke-miterlimit:4;stroke-dasharray:none;stroke-opacity:1"
       d="m 363.00073,187.03389 c 30.61856,-12.75773 115.67011,10.20619 91.85568,34.70103 -23.81444,24.49484 -82.32991,54.7732 -99.00001,35.38144 -16.6701,-19.39175 -23.47423,-57.32474 7.14433,-70.08247 z"
       id="path988-6" />
    <path
       style="fill:none;stroke:#41a89a;stroke-width:1.85208;stroke-linecap:butt;stroke-linejoin:miter;stroke-miterlimit:4;stroke-dasharray:none;stroke-opacity:1"
       d="m 128.50831,210.52568 c -25.38029,21.35643 -113.403368,24.96834 -98.035208,-5.54304 15.36816,-30.51138 62.10347,-76.95112 83.823658,-63.45424 21.72019,13.49687 39.59183,47.64086 14.21155,68.99728 z"
       id="path988-6-7" />
    <path
       style="fill:none;stroke:#41a89a;stroke-width:1.85208;stroke-linecap:butt;stroke-linejoin:miter;stroke-miterlimit:4;stroke-dasharray:none;stroke-opacity:1"
       d="m 266.54714,221.93895 c -6.4936,-26.27129 -50.9251,-66.47917 -22.62157,-73.86212 33.05708,-8.62291 77.20808,21.22787 76.62946,46.79343 -0.57859,25.56556 -47.51428,53.33998 -54.00789,27.06869 z"
       id="path988-5" />
    <path
       style="fill:none;stroke:#41a89a;stroke-width:1.85208;stroke-linecap:butt;stroke-linejoin:miter;stroke-miterlimit:4;stroke-dasharray:none;stroke-opacity:1"
       d="m 399.94316,53.826594 c -6.4936,-26.27129 -50.9251,-66.47917 -22.62157,-73.86212 33.05708,-8.62291 77.20808,21.2278702 76.62946,46.79343 -0.57859,25.56556 -47.51428,53.33998 -54.00789,27.06869 z"
       id="path988-5-7" />
    <path
       style="fill:none;stroke:#41a89a;stroke-width:1.85208;stroke-linecap:butt;stroke-linejoin:miter;stroke-miterlimit:4;stroke-dasharray:none;stroke-opacity:1"
       d="m -37.90221,215.08433 c -6.4936,-26.27129 -50.9251,-66.47917 -22.62157,-73.86212 33.05708,-8.62291 77.20808,21.22787 76.62946,46.79343 -0.57859,25.56556 -47.51428,53.33998 -54.00789,27.06869 z"
       id="path988-5-7-3" />
    <path
       style="fill:none;stroke:#41a89a;stroke-width:1.85208;stroke-linecap:butt;stroke-linejoin:miter;stroke-miterlimit:4;stroke-dasharray:none;stroke-opacity:1"
       d="m -16.469216,30.012166 c -6.4936,-26.2712902 -50.9251,-66.479166 -22.62157,-73.862116 33.0570798,-8.62291 77.20808,21.227866 76.62946,46.7934258 -0.57859,25.5655602 -47.5142802,53.3399802 -54.00789,27.0686902 z"
       id="path988-5-7-9" />
    <path
       style="fill:none;stroke:#41a89a;stroke-width:1.85208;stroke-linecap:butt;stroke-linejoin:miter;stroke-miterlimit:4;stroke-dasharray:none;stroke-opacity:1"
       d="m 159.29969,303.46486 c 7.9385,-25.87137 -9.49602,-83.20259 18.57565,-74.98195 32.78628,9.60128 55.30556,57.90513 41.66418,79.53487 -13.64136,21.62974 -68.17832,21.31846 -60.23983,-4.55292 z"
       id="path988-5-7-4" />
    <path
       style="fill:none;stroke:#41a89a;stroke-width:1.85208;stroke-linecap:butt;stroke-linejoin:miter;stroke-miterlimit:4;stroke-dasharray:none;stroke-opacity:1"
       d="m 192.21649,143.56701 c -15.6881,22.50902 -28.91752,57.83505 -11.2268,67.36083 17.69072,9.52577 46.94845,-5.78351 74.16495,-19.39175 27.2165,-13.60825 71.4433,-9.18557 60.89691,-34.70104 -10.5464,-25.51546 -39.64057,-36.06184 -68.38145,-36.06185 -18.37113,-1e-5 -39.7655,0.28479 -55.45361,22.79381 z"
       id="path1619" />
    <path
       style="fill:none;stroke:#41a89a;stroke-width:1.85208;stroke-linecap:butt;stroke-linejoin:miter;stroke-miterlimit:4;stroke-dasharray:none;stroke-opacity:1"
       d="m 273.05308,-26.831607 c -15.6881,22.5090199 -28.91752,57.83505 -11.2268,67.36083 17.69072,9.52577 46.94845,-5.78351 74.16495,-19.39175 27.2165,-13.6082501 71.4433,-9.18557 60.89691,-34.70104 -10.5464,-25.51546 -39.64057,-36.06184 -68.38145,-36.06185 -18.37113,-1e-5 -39.7655,0.28479 -55.45361,22.79381 z"
       id="path1619-1" />
    <path
       style="fill:none;stroke:#41a89a;stroke-width:1.85208;stroke-linecap:butt;stroke-linejoin:miter;stroke-miterlimit:4;stroke-dasharray:none;stroke-opacity:1"
       d="m 398.88437,110.66802 c 13.83293,-6.225 36.49389,-53.37895 20.25849,-65.21592 -16.2354,-11.83696 -47.29905,-0.637026 -76.10964,9.154413 -28.81058,9.791445 -96.18362,10.97864 -89.19505,37.688665 6.98858,26.710022 51.39398,18.991282 79.86932,22.889102 18.2014,2.49148 51.34395,1.70874 65.17688,-4.51626 z"
       id="path1619-3" />
    <path
       style="fill:none;stroke:#41a89a;stroke-width:1.85208;stroke-linecap:butt;stroke-linejoin:miter;stroke-miterlimit:4;stroke-dasharray:none;stroke-opacity:1"
       d="m 492.22121,183.28639 c -13.14165,-7.57612 -64.64088,1.63492 -64.74148,21.72701 -0.1006,20.09208 27.15689,38.73124 51.9539,56.3673 24.79702,17.63604 65.17811,71.57956 82.75054,50.28461 17.57243,-21.29497 -14.66781,-52.79078 -28.16698,-78.16419 -8.62866,-16.21866 -28.65433,-42.63861 -41.79598,-50.21473 z"
       id="path1619-3-30" />
    <path
       style="fill:none;stroke:#41a89a;stroke-width:1.85208;stroke-linecap:butt;stroke-linejoin:miter;stroke-miterlimit:4;stroke-dasharray:none;stroke-opacity:1"
       d="m 185.93675,20.613542 c 14.436,-4.658591 42.16794,-49.020215 27.33971,-62.578453 -14.82822,-13.558231 -46.9391,-5.858855 -76.6551,0.689558 -29.71599,6.548433 -96.807742,0.284796 -92.812962,27.603414 3.994795,27.318632 48.981141,24.553184 76.851512,31.573169 17.81471,4.487166 50.84084,7.370903 65.27684,2.712312 z"
       id="path1619-3-30-8" />
    <path
       style="fill:none;stroke:#41a89a;stroke-width:1.85208;stroke-linecap:butt;stroke-linejoin:miter;stroke-miterlimit:4;stroke-dasharray:none;stroke-opacity:1"
       d="m 331.24346,263.405 c 8.81227,-12.34684 4.62797,-64.49572 -15.36009,-66.54014 -19.98805,-2.04441 -41.17741,23.28147 -61.13028,46.25548 -19.95285,22.97402 -77.55084,57.94555 -58.05628,77.4962 19.49456,19.55064 53.9624,-9.49048 80.52304,-20.47094 16.97753,-7.0187 45.21134,-24.39376 54.02361,-36.7406 z"
       id="path1619-3-6" />
    <path
       style="fill:none;stroke:#41a89a;stroke-width:1.85208;stroke-linecap:butt;stroke-linejoin:miter;stroke-miterlimit:4;stroke-dasharray:none;stroke-opacity:1"
       d="m 105.71484,266.80826 c 31.88688,-9.43839 59.92138,-51.46912 28.72929,-61.95281 -19.04539,-6.40117 -56.322448,-33.44088 -86.177171,-27.55719 -29.854715,5.88371 -87.264217,24.6606 -83.88002,52.06157 3.384207,27.40096 25.9674466,33.46477 53.674234,41.10492 17.710141,4.88358 55.766789,5.7819 87.653667,-3.65649 z"
       id="path1619-3-3" />
    <path
       style="fill:none;stroke:#41a89a;stroke-width:1.85208;stroke-linecap:butt;stroke-linejoin:miter;stroke-miterlimit:4;stroke-dasharray:none;stroke-opacity:1"
       d="m 221.99475,-18.535447 c -33.1469,2.671919 -53.53035,24.3386834 -40.86769,54.711559 11.19599,26.854896 66.94319,31.391436 97.36969,31.779736 30.42649,0.388276 70.73982,33.976362 74.08957,-20.750882 C 354.27307,19.647383 334.06421,9.1112577 308.52369,-4.0690342 292.19823,-12.493865 255.14165,-21.207377 221.99475,-18.535447 Z"
       id="path1619-3-3-1" />
    <path
       style="fill:none;stroke:#41a89a;stroke-width:1.85208;stroke-linecap:butt;stroke-linejoin:miter;stroke-miterlimit:4;stroke-dasharray:none;stroke-opacity:1"
       d="m 193.2371,33.340205 c 27.41799,5.790132 54.7732,9.865979 45.24743,31.29897 -9.52577,21.432988 -25.85567,46.948445 -62.59794,33.680417 C 139.14432,85.051546 104.7835,75.865978 124.51546,50.350514 144.24742,24.83505 165.81912,27.550073 193.2371,33.340205 Z"
       id="path2917" />
    <path
       style="fill:none;stroke:#41a89a;stroke-width:1.85208;stroke-linecap:butt;stroke-linejoin:miter;stroke-miterlimit:4;stroke-dasharray:none;stroke-opacity:1"
       d="m -8.0096977,102.70861 c 27.1868027,-6.793344 53.5668987,-15.100605 54.3820257,8.33973 0.815126,23.44031 -2.700948,53.52921 -41.5443387,57.67963 -38.8434003,4.15039 -73.7588303,10.92929 -67.1838113,-20.64852 6.575015,-31.57782 27.15933,-38.57749 54.3461243,-45.37084 z"
       id="path2917-5" />
    <path
       style="fill:none;stroke:#41a89a;stroke-width:1.85208;stroke-linecap:butt;stroke-linejoin:miter;stroke-miterlimit:4;stroke-dasharray:none;stroke-opacity:1"
       d="m 156.54139,99.637187 c 35.92314,15.315903 67.02063,30.278353 57.49486,51.711333 -9.52577,21.43299 -25.09641,26.76275 -63.95877,22.79382 -79.948456,-8.16495 -19.91386,-27.65283 -14.28865,-40.48454 5.79846,-13.22692 -15.17057,-49.336518 20.75256,-34.020613 z"
       id="path2917-48" />
    <path
       style="fill:none;stroke:#41a89a;stroke-width:1.85208;stroke-linecap:butt;stroke-linejoin:miter;stroke-miterlimit:4;stroke-dasharray:none;stroke-opacity:1"
       d="m 500.82971,131.93572 c -37.17597,11.9581 -70.47415,21.02232 -77.31576,-1.41215 -6.84161,-22.43447 1.43241,-36.660913 33.39663,-59.118086 65.75744,-46.199369 33.16042,7.850287 37.31519,21.230633 4.28274,13.792453 43.77991,27.341513 6.60394,39.299603 z"
       id="path2917-48-4" />
    <path
       style="fill:none;stroke:#41a89a;stroke-width:1.85208;stroke-linecap:butt;stroke-linejoin:miter;stroke-miterlimit:4;stroke-dasharray:none;stroke-opacity:1"
       d="m 84.582465,227.57774 c 16.057795,35.5977 28.804505,67.66716 7.28039,76.98518 -21.52412,9.31801 -36.58983,2.69417 -62.494925,-26.54556 -53.29251,-60.15257 4.076245,-33.83231 16.905298,-39.46358 13.224177,-5.80472 22.251437,-46.57373 38.309237,-10.97604 z"
       id="path2917-48-4-9" />
    <path
       style="fill:none;stroke:#41a89a;stroke-width:1.85208;stroke-linecap:butt;stroke-linejoin:miter;stroke-miterlimit:4;stroke-dasharray:none;stroke-opacity:1"
       d="m 177.19492,207.61173 c 26.85536,-8.00382 52.83705,-17.48391 54.70089,5.89641 1.86385,23.38032 -0.30148,53.59647 -38.92008,59.48193 -38.61861,5.88544 -86.80374,-2.10902 -81.64921,-33.94956 5.15453,-31.84054 39.01304,-23.42496 65.8684,-31.42878 z"
       id="path2917-4" />
    <path
       style="fill:none;stroke:#41a89a;stroke-width:1.85208;stroke-linecap:butt;stroke-linejoin:miter;stroke-miterlimit:4;stroke-dasharray:none;stroke-opacity:1"
       d="m 390.31479,97.74158 c 26.85536,-8.00382 45.28025,-15.582996 54.70089,5.89641 27.65107,63.04547 -21.73447,49.8542 -60.35307,55.73966 -38.61861,5.88546 -71.49446,-21.84098 -66.33993,-53.68152 5.15453,-31.840537 45.13675,0.0493 71.99211,-7.95455 z"
       id="path2917-4-6" />
    <path
       style="fill:none;stroke:#41a89f;stroke-width:1.85208;stroke-linecap:butt;stroke-linejoin:miter;stroke-miterlimit:4;stroke-dasharray:none;stroke-opacity:1"
       d="m -9.4705178,68.057161 c 11.505972,11.042614 27.6105598,13.854073 34.2597408,7.553275 6.649181,-6.3008 7.913248,-31.693935 26.265543,-29.171408 18.352292,2.522526 48.148592,26.49007 56.427614,5.119834 C 115.76139,30.188629 54.734706,-20.251796 29.554691,-15.816951 4.3746772,-11.382105 -20.97649,57.014546 -9.4705178,68.057161 Z"
       id="path5054" />
    <path
       style="fill:none;stroke:#41a89f;stroke-width:1.85208;stroke-linecap:butt;stroke-linejoin:miter;stroke-miterlimit:4;stroke-dasharray:none;stroke-opacity:1"
       d="m 315.51463,361.12717 c 11.32937,-11.22373 14.54622,-27.25226 8.41518,-34.05828 -6.13106,-6.80602 -31.48422,-8.7103 -28.49951,-26.99311 2.9847,-18.28282 27.69632,-47.46498 6.54174,-56.2805 -21.15457,-8.8155 -73.11851,50.91927 -69.3203,76.20315 3.79819,25.28389 71.53353,52.35247 82.86289,41.12874 z"
       id="path5054-33" />
    <path
       style="fill:none;stroke:#41a89f;stroke-width:1.85208;stroke-linecap:butt;stroke-linejoin:miter;stroke-miterlimit:4;stroke-dasharray:none;stroke-opacity:1"
       d="m 472.15664,149.68349 c -13.65306,8.2414 -20.55262,23.06226 -16.19601,31.12027 4.35663,8.05802 28.54907,15.8769 21.34446,32.94335 -7.2046,17.06644 -38.09126,39.61144 -19.60633,53.15901 18.48493,13.54755 83.05016,-32.27628 85.31052,-57.74375 2.26035,-25.46746 -57.19958,-67.72028 -70.85264,-59.47888 z"
       id="path5054-3" />
  </g>
</svg>
